<svg height="4078" width="720" xmlns="http://www.w3.org/2000/svg">
<rect height="4078" fill="#555" width="720"></rect>
<text fill="#7f7" font-family="Courier New" font-size="12" xml:space="preserve">
<tspan x="10" y="26">112 megabytes installed</tspan>
<tspan x="10" y="42"></tspan>
<tspan x="10" y="58">node_modules</tspan>
<tspan x="10" y="74">└─┬ gulp-a11y@0.1.2 </tspan>
<tspan x="10" y="90">  ├─┬ a11y@0.4.1 </tspan>
<tspan x="10" y="106">  │ ├── accessibility-developer-tools@2.12.0 </tspan>
<tspan x="10" y="122">  │ ├─┬ chalk@1.1.3 </tspan>
<tspan x="10" y="138">  │ │ ├── ansi-styles@2.2.1 </tspan>
<tspan x="10" y="154">  │ │ ├── escape-string-regexp@1.0.5 </tspan>
<tspan x="10" y="170">  │ │ ├─┬ has-ansi@2.0.0 </tspan>
<tspan x="10" y="186">  │ │ │ └── ansi-regex@2.1.1 </tspan>
<tspan x="10" y="202">  │ │ ├── strip-ansi@3.0.1 </tspan>
<tspan x="10" y="218">  │ │ └── supports-color@2.0.0 </tspan>
<tspan x="10" y="234">  │ ├─┬ each-async@1.1.1 </tspan>
<tspan x="10" y="250">  │ │ ├── onetime@1.1.0 </tspan>
<tspan x="10" y="266">  │ │ └── set-immediate-shim@1.0.1 </tspan>
<tspan x="10" y="282">  │ ├─┬ globby@4.1.0 </tspan>
<tspan x="10" y="298">  │ │ ├── array-union@1.0.2 </tspan>
<tspan x="10" y="314">  │ │ ├── arrify@1.0.1 </tspan>
<tspan x="10" y="330">  │ │ ├─┬ glob@6.0.4 </tspan>
<tspan x="10" y="346">  │ │ │ ├─┬ inflight@1.0.6 </tspan>
<tspan x="10" y="362">  │ │ │ │ └── wrappy@1.0.2 </tspan>
<tspan x="10" y="378">  │ │ │ ├── inherits@2.0.3 </tspan>
<tspan x="10" y="394">  │ │ │ ├─┬ minimatch@3.0.3 </tspan>
<tspan x="10" y="410">  │ │ │ │ └─┬ brace-expansion@1.1.7 </tspan>
<tspan x="10" y="426">  │ │ │ │   ├── balanced-match@0.4.2 </tspan>
<tspan x="10" y="442">  │ │ │ │   └── concat-map@0.0.1 </tspan>
<tspan x="10" y="458">  │ │ │ ├── once@1.4.0 </tspan>
<tspan x="10" y="474">  │ │ │ └── path-is-absolute@1.0.1 </tspan>
<tspan x="10" y="490">  │ │ ├── pify@2.3.0 </tspan>
<tspan x="10" y="506">  │ │ └─┬ pinkie-promise@2.0.1 </tspan>
<tspan x="10" y="522">  │ │   └── pinkie@2.0.4 </tspan>
<tspan x="10" y="538">  │ ├─┬ humanize-url@1.0.1 </tspan>
<tspan x="10" y="554">  │ │ ├─┬ normalize-url@1.9.1 </tspan>
<tspan x="10" y="570">  │ │ │ ├─┬ query-string@4.3.4 </tspan>
<tspan x="10" y="586">  │ │ │ │ └── strict-uri-encode@1.1.0 </tspan>
<tspan x="10" y="602">  │ │ │ └─┬ sort-keys@1.1.2 </tspan>
<tspan x="10" y="618">  │ │ │   └── is-plain-obj@1.1.0 </tspan>
<tspan x="10" y="634">  │ │ └── strip-url-auth@1.0.1 </tspan>
<tspan x="10" y="650">  │ ├─┬ indent-string@2.1.0 </tspan>
<tspan x="10" y="666">  │ │ └── repeating@2.0.1 </tspan>
<tspan x="10" y="682">  │ ├─┬ meow@3.7.0 </tspan>
<tspan x="10" y="698">  │ │ ├─┬ camelcase-keys@2.1.0 </tspan>
<tspan x="10" y="714">  │ │ │ └── camelcase@2.1.1 </tspan>
<tspan x="10" y="730">  │ │ ├── decamelize@1.2.0 </tspan>
<tspan x="10" y="746">  │ │ ├─┬ loud-rejection@1.6.0 </tspan>
<tspan x="10" y="762">  │ │ │ ├─┬ currently-unhandled@0.4.1 </tspan>
<tspan x="10" y="778">  │ │ │ │ └── array-find-index@1.0.2 </tspan>
<tspan x="10" y="794">  │ │ │ └── signal-exit@3.0.2 </tspan>
<tspan x="10" y="810">  │ │ ├── map-obj@1.0.1 </tspan>
<tspan x="10" y="826">  │ │ ├─┬ normalize-package-data@2.3.8 </tspan>
<tspan x="10" y="842">  │ │ │ ├── hosted-git-info@2.4.2 </tspan>
<tspan x="10" y="858">  │ │ │ ├─┬ is-builtin-module@1.0.0 </tspan>
<tspan x="10" y="874">  │ │ │ │ └── builtin-modules@1.1.1 </tspan>
<tspan x="10" y="890">  │ │ │ ├── semver@5.3.0 </tspan>
<tspan x="10" y="906">  │ │ │ └─┬ validate-npm-package-license@3.0.1 </tspan>
<tspan x="10" y="922">  │ │ │   ├─┬ spdx-correct@1.0.2 </tspan>
<tspan x="10" y="938">  │ │ │   │ └── spdx-license-ids@1.2.2 </tspan>
<tspan x="10" y="954">  │ │ │   └── spdx-expression-parse@1.0.4 </tspan>
<tspan x="10" y="970">  │ │ ├─┬ read-pkg-up@1.0.1 </tspan>
<tspan x="10" y="986">  │ │ │ ├── find-up@1.1.2 </tspan>
<tspan x="10" y="1002">  │ │ │ └─┬ read-pkg@1.1.0 </tspan>
<tspan x="10" y="1018">  │ │ │   ├─┬ load-json-file@1.1.0 </tspan>
<tspan x="10" y="1034">  │ │ │   │ └─┬ strip-bom@2.0.0 </tspan>
<tspan x="10" y="1050">  │ │ │   │   └── is-utf8@0.2.1 </tspan>
<tspan x="10" y="1066">  │ │ │   └── path-type@1.1.0 </tspan>
<tspan x="10" y="1082">  │ │ ├─┬ redent@1.0.0 </tspan>
<tspan x="10" y="1098">  │ │ │ ├── indent-string@2.1.0 </tspan>
<tspan x="10" y="1114">  │ │ │ └── strip-indent@1.0.1 </tspan>
<tspan x="10" y="1130">  │ │ └── trim-newlines@1.0.0 </tspan>
<tspan x="10" y="1146">  │ ├── object-assign@4.1.1 </tspan>
<tspan x="10" y="1162">  │ ├─┬ parse-json@2.2.0 </tspan>
<tspan x="10" y="1178">  │ │ └─┬ error-ex@1.3.1 </tspan>
<tspan x="10" y="1194">  │ │   └── is-arrayish@0.2.1 </tspan>
<tspan x="10" y="1210">  │ ├─┬ phantomjs@2.1.7 </tspan>
<tspan x="10" y="1226">  │ │ ├─┬ extract-zip@1.5.0 </tspan>
<tspan x="10" y="1242">  │ │ │ ├─┬ concat-stream@1.5.0 </tspan>
<tspan x="10" y="1258">  │ │ │ │ ├── readable-stream@2.0.6 </tspan>
<tspan x="10" y="1274">  │ │ │ │ └── typedarray@0.0.6 </tspan>
<tspan x="10" y="1290">  │ │ │ ├── debug@0.7.4 </tspan>
<tspan x="10" y="1306">  │ │ │ ├─┬ mkdirp@0.5.0 </tspan>
<tspan x="10" y="1322">  │ │ │ │ └── minimist@0.0.8 </tspan>
<tspan x="10" y="1338">  │ │ │ └─┬ yauzl@2.4.1 </tspan>
<tspan x="10" y="1354">  │ │ │   └─┬ fd-slicer@1.0.1 </tspan>
<tspan x="10" y="1370">  │ │ │     └── pend@1.2.0 </tspan>
<tspan x="10" y="1386">  │ │ ├─┬ fs-extra@0.26.7 </tspan>
<tspan x="10" y="1402">  │ │ │ ├── graceful-fs@4.1.11 </tspan>
<tspan x="10" y="1418">  │ │ │ ├── jsonfile@2.4.0 </tspan>
<tspan x="10" y="1434">  │ │ │ ├── klaw@1.3.1 </tspan>
<tspan x="10" y="1450">  │ │ │ └─┬ rimraf@2.6.1 </tspan>
<tspan x="10" y="1466">  │ │ │   └─┬ glob@7.1.1 </tspan>
<tspan x="10" y="1482">  │ │ │     └── fs.realpath@1.0.0 </tspan>
<tspan x="10" y="1498">  │ │ ├─┬ hasha@2.2.0 </tspan>
<tspan x="10" y="1514">  │ │ │ └── is-stream@1.1.0 </tspan>
<tspan x="10" y="1530">  │ │ ├── kew@0.7.0 </tspan>
<tspan x="10" y="1546">  │ │ ├── progress@1.1.8 </tspan>
<tspan x="10" y="1562">  │ │ ├─┬ request@2.67.0 </tspan>
<tspan x="10" y="1578">  │ │ │ ├── aws-sign2@0.6.0 </tspan>
<tspan x="10" y="1594">  │ │ │ ├── bl@1.0.3 </tspan>
<tspan x="10" y="1610">  │ │ │ ├── caseless@0.11.0 </tspan>
<tspan x="10" y="1626">  │ │ │ ├─┬ combined-stream@1.0.5 </tspan>
<tspan x="10" y="1642">  │ │ │ │ └── delayed-stream@1.0.0 </tspan>
<tspan x="10" y="1658">  │ │ │ ├── extend@3.0.0 </tspan>
<tspan x="10" y="1674">  │ │ │ ├── forever-agent@0.6.1 </tspan>
<tspan x="10" y="1690">  │ │ │ ├─┬ form-data@1.0.1 </tspan>
<tspan x="10" y="1706">  │ │ │ │ └─┬ async@2.3.0 </tspan>
<tspan x="10" y="1722">  │ │ │ │   └── lodash@4.17.4 </tspan>
<tspan x="10" y="1738">  │ │ │ ├─┬ har-validator@2.0.6 </tspan>
<tspan x="10" y="1754">  │ │ │ │ ├─┬ commander@2.9.0 </tspan>
<tspan x="10" y="1770">  │ │ │ │ │ └── graceful-readlink@1.0.1 </tspan>
<tspan x="10" y="1786">  │ │ │ │ └─┬ is-my-json-valid@2.16.0 </tspan>
<tspan x="10" y="1802">  │ │ │ │   ├── generate-function@2.0.0 </tspan>
<tspan x="10" y="1818">  │ │ │ │   ├─┬ generate-object-property@1.2.0 </tspan>
<tspan x="10" y="1834">  │ │ │ │   │ └── is-property@1.0.2 </tspan>
<tspan x="10" y="1850">  │ │ │ │   └── jsonpointer@4.0.1 </tspan>
<tspan x="10" y="1866">  │ │ │ ├─┬ hawk@3.1.3 </tspan>
<tspan x="10" y="1882">  │ │ │ │ ├── boom@2.10.1 </tspan>
<tspan x="10" y="1898">  │ │ │ │ ├── cryptiles@2.0.5 </tspan>
<tspan x="10" y="1914">  │ │ │ │ ├── hoek@2.16.3 </tspan>
<tspan x="10" y="1930">  │ │ │ │ └── sntp@1.0.9 </tspan>
<tspan x="10" y="1946">  │ │ │ ├─┬ http-signature@1.1.1 </tspan>
<tspan x="10" y="1962">  │ │ │ │ ├── assert-plus@0.2.0 </tspan>
<tspan x="10" y="1978">  │ │ │ │ ├─┬ jsprim@1.4.0 </tspan>
<tspan x="10" y="1994">  │ │ │ │ │ ├── assert-plus@1.0.0 </tspan>
<tspan x="10" y="2010">  │ │ │ │ │ ├── extsprintf@1.0.2 </tspan>
<tspan x="10" y="2026">  │ │ │ │ │ ├── json-schema@0.2.3 </tspan>
<tspan x="10" y="2042">  │ │ │ │ │ └── verror@1.3.6 </tspan>
<tspan x="10" y="2058">  │ │ │ │ └─┬ sshpk@1.13.0 </tspan>
<tspan x="10" y="2074">  │ │ │ │   ├── asn1@0.2.3 </tspan>
<tspan x="10" y="2090">  │ │ │ │   ├── assert-plus@1.0.0 </tspan>
<tspan x="10" y="2106">  │ │ │ │   ├── bcrypt-pbkdf@1.0.1 </tspan>
<tspan x="10" y="2122">  │ │ │ │   ├─┬ dashdash@1.14.1 </tspan>
<tspan x="10" y="2138">  │ │ │ │   │ └── assert-plus@1.0.0 </tspan>
<tspan x="10" y="2154">  │ │ │ │   ├── ecc-jsbn@0.1.1 </tspan>
<tspan x="10" y="2170">  │ │ │ │   ├─┬ getpass@0.1.6 </tspan>
<tspan x="10" y="2186">  │ │ │ │   │ └── assert-plus@1.0.0 </tspan>
<tspan x="10" y="2202">  │ │ │ │   ├── jodid25519@1.0.2 </tspan>
<tspan x="10" y="2218">  │ │ │ │   ├── jsbn@0.1.1 </tspan>
<tspan x="10" y="2234">  │ │ │ │   └── tweetnacl@0.14.5 </tspan>
<tspan x="10" y="2250">  │ │ │ ├── is-typedarray@1.0.0 </tspan>
<tspan x="10" y="2266">  │ │ │ ├── isstream@0.1.2 </tspan>
<tspan x="10" y="2282">  │ │ │ ├── json-stringify-safe@5.0.1 </tspan>
<tspan x="10" y="2298">  │ │ │ ├─┬ mime-types@2.1.15 </tspan>
<tspan x="10" y="2314">  │ │ │ │ └── mime-db@1.27.0 </tspan>
<tspan x="10" y="2330">  │ │ │ ├── node-uuid@1.4.8 </tspan>
<tspan x="10" y="2346">  │ │ │ ├── oauth-sign@0.8.2 </tspan>
<tspan x="10" y="2362">  │ │ │ ├── qs@5.2.1 </tspan>
<tspan x="10" y="2378">  │ │ │ ├── stringstream@0.0.5 </tspan>
<tspan x="10" y="2394">  │ │ │ ├── tough-cookie@2.2.2 </tspan>
<tspan x="10" y="2410">  │ │ │ └── tunnel-agent@0.4.3 </tspan>
<tspan x="10" y="2426">  │ │ ├─┬ request-progress@2.0.1 </tspan>
<tspan x="10" y="2442">  │ │ │ └── throttleit@1.0.0 </tspan>
<tspan x="10" y="2458">  │ │ └─┬ which@1.2.14 </tspan>
<tspan x="10" y="2474">  │ │   └── isexe@2.0.0 </tspan>
<tspan x="10" y="2490">  │ ├── phantomjs-polyfill@0.0.2 </tspan>
<tspan x="10" y="2506">  │ ├─┬ protocolify@1.0.3 </tspan>
<tspan x="10" y="2522">  │ │ ├── file-url@1.1.0 </tspan>
<tspan x="10" y="2538">  │ │ ├── path-exists@2.1.0 </tspan>
<tspan x="10" y="2554">  │ │ └── prepend-http@1.0.4 </tspan>
<tspan x="10" y="2570">  │ └─┬ update-notifier@0.6.3 </tspan>
<tspan x="10" y="2586">  │   ├─┬ boxen@0.3.1 </tspan>
<tspan x="10" y="2602">  │   │ ├── filled-array@1.1.0 </tspan>
<tspan x="10" y="2618">  │   │ ├─┬ string-width@1.0.2 </tspan>
<tspan x="10" y="2634">  │   │ │ ├── code-point-at@1.1.0 </tspan>
<tspan x="10" y="2650">  │   │ │ └── is-fullwidth-code-point@1.0.0 </tspan>
<tspan x="10" y="2666">  │   │ └── widest-line@1.0.0 </tspan>
<tspan x="10" y="2682">  │   ├─┬ configstore@2.1.0 </tspan>
<tspan x="10" y="2698">  │   │ ├─┬ dot-prop@3.0.0 </tspan>
<tspan x="10" y="2714">  │   │ │ └── is-obj@1.0.1 </tspan>
<tspan x="10" y="2730">  │   │ ├── os-tmpdir@1.0.2 </tspan>
<tspan x="10" y="2746">  │   │ ├─┬ osenv@0.1.4 </tspan>
<tspan x="10" y="2762">  │   │ │ └── os-homedir@1.0.2 </tspan>
<tspan x="10" y="2778">  │   │ ├── uuid@2.0.3 </tspan>
<tspan x="10" y="2794">  │   │ ├─┬ write-file-atomic@1.3.2 </tspan>
<tspan x="10" y="2810">  │   │ │ ├── imurmurhash@0.1.4 </tspan>
<tspan x="10" y="2826">  │   │ │ └── slide@1.1.6 </tspan>
<tspan x="10" y="2842">  │   │ └── xdg-basedir@2.0.0 </tspan>
<tspan x="10" y="2858">  │   ├── is-npm@1.0.0 </tspan>
<tspan x="10" y="2874">  │   ├─┬ latest-version@2.0.0 </tspan>
<tspan x="10" y="2890">  │   │ └─┬ package-json@2.4.0 </tspan>
<tspan x="10" y="2906">  │   │   ├─┬ got@5.7.1 </tspan>
<tspan x="10" y="2922">  │   │   │ ├─┬ create-error-class@3.0.2 </tspan>
<tspan x="10" y="2938">  │   │   │ │ └── capture-stack-trace@1.0.0 </tspan>
<tspan x="10" y="2954">  │   │   │ ├── duplexer2@0.1.4 </tspan>
<tspan x="10" y="2970">  │   │   │ ├── is-redirect@1.0.0 </tspan>
<tspan x="10" y="2986">  │   │   │ ├── is-retry-allowed@1.1.0 </tspan>
<tspan x="10" y="3002">  │   │   │ ├── lowercase-keys@1.0.0 </tspan>
<tspan x="10" y="3018">  │   │   │ ├── node-status-codes@1.0.0 </tspan>
<tspan x="10" y="3034">  │   │   │ ├── read-all-stream@3.1.0 </tspan>
<tspan x="10" y="3050">  │   │   │ ├── timed-out@3.1.3 </tspan>
<tspan x="10" y="3066">  │   │   │ ├── unzip-response@1.0.2 </tspan>
<tspan x="10" y="3082">  │   │   │ └── url-parse-lax@1.0.0 </tspan>
<tspan x="10" y="3098">  │   │   ├─┬ registry-auth-token@3.2.0 </tspan>
<tspan x="10" y="3114">  │   │   │ └─┬ rc@1.2.1 </tspan>
<tspan x="10" y="3130">  │   │   │   ├── deep-extend@0.4.1 </tspan>
<tspan x="10" y="3146">  │   │   │   ├── ini@1.3.4 </tspan>
<tspan x="10" y="3162">  │   │   │   └── strip-json-comments@2.0.1 </tspan>
<tspan x="10" y="3178">  │   │   └── registry-url@3.1.0 </tspan>
<tspan x="10" y="3194">  │   └── semver-diff@2.1.0 </tspan>
<tspan x="10" y="3210">  ├─┬ gulp-util@3.0.8 </tspan>
<tspan x="10" y="3226">  │ ├── array-differ@1.0.0 </tspan>
<tspan x="10" y="3242">  │ ├── array-uniq@1.0.3 </tspan>
<tspan x="10" y="3258">  │ ├── beeper@1.1.1 </tspan>
<tspan x="10" y="3274">  │ ├── dateformat@2.0.0 </tspan>
<tspan x="10" y="3290">  │ ├─┬ fancy-log@1.3.0 </tspan>
<tspan x="10" y="3306">  │ │ └── time-stamp@1.0.1 </tspan>
<tspan x="10" y="3322">  │ ├─┬ gulplog@1.0.0 </tspan>
<tspan x="10" y="3338">  │ │ └── glogg@1.0.0 </tspan>
<tspan x="10" y="3354">  │ ├─┬ has-gulplog@0.1.0 </tspan>
<tspan x="10" y="3370">  │ │ └── sparkles@1.0.0 </tspan>
<tspan x="10" y="3386">  │ ├── lodash._reescape@3.0.0 </tspan>
<tspan x="10" y="3402">  │ ├── lodash._reevaluate@3.0.0 </tspan>
<tspan x="10" y="3418">  │ ├── lodash._reinterpolate@3.0.0 </tspan>
<tspan x="10" y="3434">  │ ├─┬ lodash.template@3.6.2 </tspan>
<tspan x="10" y="3450">  │ │ ├── lodash._basecopy@3.0.1 </tspan>
<tspan x="10" y="3466">  │ │ ├── lodash._basetostring@3.0.1 </tspan>
<tspan x="10" y="3482">  │ │ ├── lodash._basevalues@3.0.0 </tspan>
<tspan x="10" y="3498">  │ │ ├── lodash._isiterateecall@3.0.9 </tspan>
<tspan x="10" y="3514">  │ │ ├─┬ lodash.escape@3.2.0 </tspan>
<tspan x="10" y="3530">  │ │ │ └── lodash._root@3.0.1 </tspan>
<tspan x="10" y="3546">  │ │ ├─┬ lodash.keys@3.1.2 </tspan>
<tspan x="10" y="3562">  │ │ │ ├── lodash._getnative@3.9.1 </tspan>
<tspan x="10" y="3578">  │ │ │ ├── lodash.isarguments@3.1.0 </tspan>
<tspan x="10" y="3594">  │ │ │ └── lodash.isarray@3.0.4 </tspan>
<tspan x="10" y="3610">  │ │ ├── lodash.restparam@3.6.1 </tspan>
<tspan x="10" y="3626">  │ │ └── lodash.templatesettings@3.1.1 </tspan>
<tspan x="10" y="3642">  │ ├── minimist@1.2.0 </tspan>
<tspan x="10" y="3658">  │ ├─┬ multipipe@0.1.2 </tspan>
<tspan x="10" y="3674">  │ │ └─┬ duplexer2@0.0.2 </tspan>
<tspan x="10" y="3690">  │ │   └─┬ readable-stream@1.1.14 </tspan>
<tspan x="10" y="3706">  │ │     ├── isarray@0.0.1 </tspan>
<tspan x="10" y="3722">  │ │     └── string_decoder@0.10.31 </tspan>
<tspan x="10" y="3738">  │ ├── object-assign@3.0.0 </tspan>
<tspan x="10" y="3754">  │ ├── replace-ext@0.0.1 </tspan>
<tspan x="10" y="3770">  │ ├─┬ through2@2.0.3 </tspan>
<tspan x="10" y="3786">  │ │ ├─┬ readable-stream@2.2.9 </tspan>
<tspan x="10" y="3802">  │ │ │ ├── buffer-shims@1.0.0 </tspan>
<tspan x="10" y="3818">  │ │ │ ├── core-util-is@1.0.2 </tspan>
<tspan x="10" y="3834">  │ │ │ ├── isarray@1.0.0 </tspan>
<tspan x="10" y="3850">  │ │ │ ├── process-nextick-args@1.0.7 </tspan>
<tspan x="10" y="3866">  │ │ │ ├── string_decoder@1.0.0 </tspan>
<tspan x="10" y="3882">  │ │ │ └── util-deprecate@1.0.2 </tspan>
<tspan x="10" y="3898">  │ │ └── xtend@4.0.1 </tspan>
<tspan x="10" y="3914">  │ └─┬ vinyl@0.5.3 </tspan>
<tspan x="10" y="3930">  │   ├── clone@1.0.2 </tspan>
<tspan x="10" y="3946">  │   └── clone-stats@0.0.1 </tspan>
<tspan x="10" y="3962">  ├─┬ indent-string@1.2.2 </tspan>
<tspan x="10" y="3978">  │ ├── get-stdin@4.0.1 </tspan>
<tspan x="10" y="3994">  │ └─┬ repeating@1.1.3 </tspan>
<tspan x="10" y="4010">  │   └─┬ is-finite@1.0.2 </tspan>
<tspan x="10" y="4026">  │     └── number-is-nan@1.0.1 </tspan>
<tspan x="10" y="4042">  ├── log-symbols@1.0.2 </tspan>
<tspan x="10" y="4058">  └── map-stream@0.0.5</tspan>
</text>
</svg>
